<svg width="14" height="9" viewBox="0 0 14 9" fill="none" xmlns="http://www.w3.org/2000/svg">
<path d="M1.37496 4.16659C1.02978 4.16659 0.74996 4.44641 0.74996 4.79159C0.74996 5.108 0.985088 5.36949 1.29015 5.41088L1.37496 5.41659H13.0416C13.3868 5.41659 13.6666 5.13676 13.6666 4.79159C13.6666 4.47517 13.4315 4.21368 13.1264 4.17229L13.0416 4.16659H1.37496Z" fill="#212121"/>
<path d="M13.4836 4.34964C13.2617 4.12775 12.9145 4.10758 12.6698 4.28913L12.5997 4.34964L9.26635 7.68298C9.02227 7.92706 9.02227 8.32278 9.26635 8.56686C9.48824 8.78875 9.83546 8.80892 10.0801 8.62738L10.1502 8.56686L13.4836 5.23353C13.7276 4.98945 13.7276 4.59372 13.4836 4.34964Z" fill="#212121"/>
<path d="M10.1502 1.01631C9.90616 0.772233 9.51043 0.772233 9.26635 1.01631C9.04446 1.2382 9.02429 1.58542 9.20584 1.8301L9.26635 1.90019L12.5997 5.23353C12.8438 5.4776 13.2395 5.4776 13.4836 5.23353C13.7055 5.01164 13.7256 4.66442 13.5441 4.41974L13.4836 4.34964L10.1502 1.01631Z" fill="#212121"/>
</svg>
